<svg id="SvgjsSvg1019" width="288" height="288" xmlns="http://www.w3.org/2000/svg" version="1.1" xmlns:xlink="http://www.w3.org/1999/xlink" xmlns:svgjs="http://svgjs.com/svgjs"><path id="SvgjsPath1025" d="M 144,0 C 5,0 0,5 0,144 0,283 5,288 144,288 283,288 288,283 288,144 288,5 283,0 144,0 Z" transform="matrix(0.7915999889373779,0,0,0.7915999889373779,30.009601593017578,30.009601593017578)" fill="#161616"></path><defs id="SvgjsDefs1020"></defs><g id="SvgjsG1021" transform="matrix(0.4652000069618225,0,0,0.4652000069618225,77.01119995117188,77.01119995117188)"><svg xmlns="http://www.w3.org/2000/svg" viewBox="0 0 1792 1792" width="288" height="288"><path d="M1278 1074v109q0 50-36.5 89t-94 60.5-118 32.5-117.5 11q-205 0-342.5-139T432 891q0-203 136-339t339-136q34 0 75.5 4.5t93 18 92.5 34 69 56.5 28 81v109q0 16-16 16h-118q-16 0-16-16v-70q0-43-65.5-67.5T912 557q-140 0-228.5 91.5T595 886q0 151 91.5 249.5T920 1234q68 0 138-24t70-66v-70q0-7 4.5-11.5t10.5-4.5h119q6 0 11 4.5t5 11.5zM896 256q-130 0-248.5 51t-204 136.5-136.5 204T256 896t51 248.5 136.5 204 204 136.5 248.5 51 248.5-51 204-136.5 136.5-204 51-248.5-51-248.5-136.5-204-204-136.5T896 256zm768 640q0 209-103 385.5T1281.5 1561 896 1664t-385.5-103T231 1281.5 128 896t103-385.5T510.5 231 896 128t385.5 103T1561 510.5 1664 896z" fill="#ffffff" class="svgShape color000000-0 selectable"></path></svg></g></svg>